<svg width="32" height="32" viewBox="0 0 32 32" fill="none" xmlns="http://www.w3.org/2000/svg">
<path d="M24.663 29.7964C22.983 31.3795 21.1488 31.1295 19.3831 30.3796C17.5146 29.6131 15.8004 29.5797 13.829 30.3796C11.3605 31.4128 10.0577 31.1129 8.58341 29.7964C0.217924 21.4141 1.45218 8.64903 10.9491 8.18243C13.2633 8.29908 14.8747 9.4156 16.2289 9.51559C18.2517 9.11564 20.1888 7.96579 22.3488 8.11577C24.9373 8.31574 26.8915 9.31562 28.1772 11.1154C22.8287 14.2317 24.0973 21.0808 29 22.9972C28.0229 25.4969 26.7543 27.9799 24.6458 29.813L24.663 29.7964ZM16.0575 8.08244C15.8004 4.36624 18.9031 1.29996 22.4687 1C22.9659 5.29946 18.4574 8.49905 16.0575 8.08244Z" fill="#2E271A"/>
</svg>
